<svg id="Capa_1" enable-background="new 0 0 512.578 512.578" height="512" viewBox="0 0 512.578 512.578" width="512" xmlns="http://www.w3.org/2000/svg"><g><g><path d="m413.637 102.493c-41.08-41.08-95.699-63.704-153.795-63.704h-28.128v-28.289c0-5.79-4.71-10.5-10.5-10.5h-78.435c-5.79 0-10.5 4.71-10.5 10.5v491.577c0 5.79 4.71 10.5 10.5 10.5h78.435c5.79 0 10.5-4.71 10.5-10.5v-28.289h28.128c58.096 0 112.715-22.624 153.795-63.704 41.08-41.081 63.704-95.7 63.704-153.796s-22.624-112.714-63.704-153.795zm-153.796 356.296h-32.628c-5.79 0-10.5 4.71-10.5 10.5v28.289h-69.435v-16.789h5.531c4.142 0 7.5-3.358 7.5-7.5s-3.358-7.5-7.5-7.5h-5.531v-16h5.531c4.142 0 7.5-3.358 7.5-7.5s-3.358-7.5-7.5-7.5h-5.531v-16h18.563c4.142 0 7.5-3.358 7.5-7.5s-3.358-7.5-7.5-7.5h-18.563v-16h5.531c4.142 0 7.5-3.358 7.5-7.5s-3.358-7.5-7.5-7.5h-5.531v-16h5.531c4.142 0 7.5-3.358 7.5-7.5s-3.358-7.5-7.5-7.5h-5.531v-16h18.563c4.142 0 7.5-3.358 7.5-7.5s-3.358-7.5-7.5-7.5h-18.563v-16h5.531c4.142 0 7.5-3.358 7.5-7.5s-3.358-7.5-7.5-7.5h-5.531v-16h5.531c4.142 0 7.5-3.358 7.5-7.5s-3.358-7.5-7.5-7.5h-5.531v-16h18.563c4.142 0 7.5-3.358 7.5-7.5s-3.358-7.5-7.5-7.5h-18.563v-16h5.531c4.142 0 7.5-3.358 7.5-7.5s-3.358-7.5-7.5-7.5h-5.531v-16h5.531c4.142 0 7.5-3.358 7.5-7.5s-3.358-7.5-7.5-7.5h-5.531v-16h18.563c4.142 0 7.5-3.358 7.5-7.5s-3.358-7.5-7.5-7.5h-18.563v-16h5.531c4.142 0 7.5-3.358 7.5-7.5s-3.358-7.5-7.5-7.5h-5.531v-16h5.531c4.142 0 7.5-3.358 7.5-7.5s-3.358-7.5-7.5-7.5h-5.531v-16h18.563c4.142 0 7.5-3.358 7.5-7.5s-3.358-7.5-7.5-7.5h-18.563v-16.789h69.435v28.289c0 5.79 4.71 10.5 10.5 10.5h32.628c111.659 0 202.5 90.841 202.5 202.5s-90.841 202.5-202.5 202.5z"/><path d="m254.596 98.926h-27.383c-5.79 0-10.5 4.71-10.5 10.5v293.727c0 5.79 4.71 10.5 10.5 10.5h27.383c49.086 0 94.482-22.295 124.548-61.169 2.534-3.276 1.932-7.987-1.344-10.521-3.276-2.535-7.986-1.932-10.521 1.344-27.204 35.173-68.275 55.346-112.683 55.346h-22.883v-284.727h22.883c78.5 0 142.363 63.864 142.363 142.363 0 20.048-4.081 39.425-12.13 57.596l-.561 1.175c-1.783 3.739-.198 8.215 3.541 9.998 3.74 1.784 8.215.197 9.998-3.541l.604-1.268c.029-.062.058-.124.085-.186 8.933-20.126 13.461-41.583 13.461-63.775.002-86.769-70.591-157.362-157.361-157.362z"/><path d="m87.771 0h-32.427c-11.087 0-20.107 9.021-20.107 20.108l.002 87.401c0 4.142 3.358 7.5 7.5 7.5s7.5-3.358 7.5-7.5v-23.981h13.819v357.295h-13.819v-300.034c0-4.142-3.358-7.5-7.5-7.5s-7.5 3.358-7.5 7.5v307.534c0 .064.008.127.01.192.023.927.251 1.971.623 2.818.005.011.008.022.012.033l12.628 28.441c.004.01 4.461 10.046 4.461 10.046l6.437 14.498c1.623 3.654 4.648 6.27 8.307 7.348 1.22.36 2.511.549 3.845.549 5.33 0 9.984-3.027 12.146-7.898 3.639-8.198 7.279-16.395 10.918-24.592 4.154-9.357 8.274-18.731 12.463-28.073.534-1.19.787-2.06.787-3.362v-428.215c.002-11.087-9.018-20.108-20.105-20.108zm-37.534 20.108c0-2.816 2.291-5.108 5.107-5.108h32.426c2.816 0 5.107 2.292 5.107 5.108v14.008h-42.64zm.002 48.42v-19.412h42.639v19.412zm28.82 15h13.819v357.295h-13.819zm9.783 372.295-5.98 13.468h-22.606l-5.98-13.468zm-17.282 38.92-4.643-10.452h9.284z"/></g></g></svg>